#!OML:ASF I:\Random Stuff\random\construction\7_22_03\Session 2\subj1.ASF
:FULLY-SPECIFIED
:DEGREES
506
root -0.0958015 17.7622 -0.303463 -4.95233 74.0082 -10.9232
lowerback 2.19811 0.755763 1.09716
upperback -3.00226 1.15377 1.70046
thorax -4.34131 0.581457 1.07007
lowerneck -25.0569 0.70571 2.00338
upperneck 26.5054 0.0121017 1.08728
head 13.0665 0.438497 0.10627
rclavicle 1.99111e-014 -1.07344e-014
rhumerus -1.38424 29.5539 -80.8316
rradius 123.447
rwrist -18.5782
rhand -34.4572 27.529
rfingers 7.12502
rthumb -7.62083 -2.31372
lclavicle 1.99111e-014 -1.07344e-014
lhumerus -34.6068 -15.215 97.5882
lradius 33.7685
lwrist 28.2548
lhand -19.5349 58.2459
lfingers 7.12502
lthumb 6.78884 -271.883
rfemur -0.119675 4.94371 22.5005
rtibia -8.74653e-015
rfoot -2.4539 -14.3519
rtoes -13.9078
lfemur -10.2684 -18.8275 -11.734
ltibia 18.5632
lfoot -13.4762 15.6759
ltoes -30.13
507
root -0.101411 17.7677 -0.305373 -4.17503 74.0017 -10.2024
lowerback 2.21809 0.776141 0.892481
upperback -3.03096 1.16992 1.63592
thorax -4.38516 0.594612 1.11675
lowerneck -25.0401 0.688404 2.03111
upperneck 26.5106 0.00536627 0.997137
head 13.0649 0.425457 0.065156
rclavicle 4.96651e-015 -2.22639e-014
rhumerus -1.41291 29.6761 -80.8526
rradius 123.442
rwrist -18.5532
rhand -34.6264 27.6386
rfingers 7.12502
rthumb -7.78418 -2.19811
lclavicle 4.96651e-015 -2.22639e-014
lhumerus -34.6081 -15.1737 97.5501
lradius 33.5271
lwrist 28.3685
lhand -19.7131 58.267
lfingers 7.12502
lthumb 6.6168 -271.856
rfemur -0.232139 4.96672 22.2556
rtibia 7.95139e-016
rfoot -2.53623 -14.3118
rtoes -12.6156
lfemur -10.3387 -18.9721 -11.9235
ltibia 18.5022
lfoot -13.4208 15.8756
ltoes -30.0685
508
root -0.104617 17.7705 -0.306554 -4.07597 73.989 -10.1156
lowerback 2.27253 0.782394 0.874161
upperback -3.04066 1.17791 1.61978
thorax -4.4263 0.59872 1.10909
lowerneck -25.0066 0.679118 2.09448
upperneck 26.5839 0.0246207 0.821715
head 13.0879 0.416606 -0.0100932
rclavicle -1.36338e-014 1.70955e-014
rhumerus -1.47259 29.8292 -80.9266
rradius 123.455
rwrist -18.6088
rhand -34.7682 27.7178
rfingers 7.12502
rthumb -7.9211 -2.11378
lclavicle -1.36338e-014 1.70955e-014
lhumerus -34.5804 -15.0643 97.4611
lradius 33.2278
lwrist 28.3512
lhand -19.7476 58.5916
lfingers 7.12502
lthumb 6.58348 -271.531
rfemur -0.256499 4.98093 22.2194
rtibia -3.97569e-015
rfoot -2.64341 -14.3063
rtoes -11.5269
lfemur -10.3398 -19.1583 -11.943
ltibia 18.4776
lfoot -13.3725 16.1007
ltoes -30.1426
509
root -0.107962 17.7673 -0.308142 -4.63022 73.9669 -10.6912
lowerback 2.34325 0.765532 1.04424
upperback -3.04685 1.16693 1.66237
thorax -4.47053 0.588584 1.05746
lowerneck -24.984 0.713088 2.1876
upperneck 26.7079 0.098212 0.63508
head 13.1346 0.434048 -0.084557
rclavicle -2.26739e-016 -6.16232e-015
rhumerus -1.52203 29.9811 -81.0349
rradius 123.477
rwrist -18.6016
rhand -34.8289 27.6204
rfingers 7.12502
rthumb -7.97963 -2.20901
lclavicle -2.26739e-016 -6.16232e-015
lhumerus -34.5565 -14.7996 97.3167
lradius 32.8803
lwrist 28.1883
lhand -19.7571 58.6727
lfingers 7.12502
lthumb 6.57432 -271.449
rfemur -0.272166 4.9929 22.4138
rtibia 5.56597e-015
rfoot -2.57321 -14.3615
rtoes -12.7061
lfemur -10.3458 -19.3289 -11.7549
ltibia 18.4683
lfoot -13.3577 16.2822
ltoes -30.0571
510
root -0.111299 17.7655 -0.312059 -4.64362 73.9643 -10.7863
lowerback 2.34189 0.724827 1.09208
upperback -3.06688 1.11569 1.66752
thorax -4.48925 0.561732 1.03909
lowerneck -25.0341 0.793789 2.2688
upperneck 26.8388 0.202722 0.567658
head 13.1998 0.480908 -0.104563
rclavicle -9.53856e-015 2.38542e-015
rhumerus -1.54448 30.1561 -81.169
rradius 123.503
rwrist -18.5508
rhand -34.7991 27.3595
rfingers 7.12502
rthumb -7.95085 -2.47095
lclavicle -9.53856e-015 2.38542e-015
lhumerus -34.5926 -14.4741 97.1842
lradius 32.5699
lwrist 28.1655
lhand -20.0438 58.545
lfingers 7.12502
lthumb 6.29752 -271.569
rfemur -0.381357 4.99668 22.4373
rtibia -1.59028e-015
rfoot -2.47567 -14.391
rtoes -13.8478
lfemur -10.4811 -19.4339 -11.696
ltibia 18.516
lfoot -13.3511 16.4119
ltoes -30.0413
511
root -0.113209 17.7672 -0.316168 -4.19565 73.9846 -10.4295
lowerback 2.28327 0.706613 1.03878
upperback -3.08293 1.08597 1.62281
thorax -4.47226 0.547884 1.02527
lowerneck -25.0719 0.82067 2.24748
upperneck 26.8964 0.226616 0.638903
head 13.2315 0.500522 -0.0681857
rclavicle -4.18519e-014 -1.19271e-014
rhumerus -1.60192 30.2589 -81.2969
rradius 123.533
rwrist -18.5035
rhand -34.6812 27.0776
rfingers 7.12502
rthumb -7.83707 -2.75711
lclavicle -4.18519e-014 -1.19271e-014
lhumerus -34.6419 -14.2261 97.0945
lradius 32.1676
lwrist 28.1529
lhand -20.4307 58.1016
lfingers 7.12502
lthumb 5.92403 -272.001
rfemur -0.50232 4.98642 22.3012
rtibia -4.77083e-015
rfoot -2.47078 -14.3875
rtoes -13.8545
lfemur -10.6348 -19.5164 -11.7775
ltibia 18.5588
lfoot -13.3054 16.5021
ltoes -30.3331
512
root -0.114205 17.7686 -0.318448 -3.89922 74.0105 -10.2011
lowerback 2.23278 0.709893 1.00881
upperback -3.09051 1.08676 1.59196
thorax -4.45131 0.548725 1.01074
lowerneck -25.2782 0.618974 2.50621
upperneck 26.997 0.0205911 0.0177694
head 13.3114 0.348101 -0.393528
rclavicle 2.48062e-014 7.35503e-015
rhumerus -1.71385 30.306 -81.3967
rradius 123.547
rwrist -18.4658
rhand -34.5053 27.3517
rfingers 7.12502
rthumb -7.66735 -2.48935
lclavicle 2.48062e-014 7.35503e-015
lhumerus -34.6488 -14.0363 97.0356
lradius 31.8801
lwrist 28.1382
lhand -20.6051 58.5625
lfingers 7.12502
lthumb 5.75567 -271.536
rfemur -0.57875 4.9669 22.212
rtibia -2.38542e-015
rfoot -2.54167 -14.3982
rtoes -13.2491
lfemur -10.6971 -19.6333 -11.8249
ltibia 18.4933
lfoot -13.2337 16.5938
ltoes -30.4955
513
root -0.114718 17.7709 -0.321982 -3.59317 74.0594 -9.95365
lowerback 2.19835 0.692488 0.965894
upperback -3.10547 1.06018 1.56711
thorax -4.44723 0.536496 1.01109
lowerneck -25.6548 0.276718 3.23959
upperneck 27.1275 -0.307695 -1.48517
head 13.4285 0.0628786 -1.17328
rclavicle -3.94712e-014 2.18663e-015
rhumerus -1.86211 30.4245 -81.5091
rradius 123.541
rwrist -18.3682
rhand -34.2917 27.5837
rfingers 7.12502
rthumb -7.46111 -2.26476
lclavicle -3.94712e-014 2.18663e-015
lhumerus -34.6329 -13.7579 96.9343
lradius 31.4872
lwrist 28.0095
lhand -20.7701 58.5262
lfingers 7.12502
lthumb 5.59632 -271.568
rfemur -0.640563 4.9234 22.1077
rtibia -2.38542e-015
rfoot -2.65165 -14.4129
rtoes -12.3832
lfemur -10.7148 -19.7632 -11.8895
ltibia 18.353
lfoot -13.1594 16.6832
ltoes -30.4278
514
root -0.114623 17.7752 -0.32486 -3.4442 74.1 -9.84104
lowerback 2.18183 0.677496 0.947561
upperback -3.11286 1.03891 1.55993
thorax -4.44544 0.52643 1.01539
lowerneck -25.7732 0.105299 3.70786
upperneck 27.1115 -0.46059 -2.39833
head 13.4345 -0.0891812 -1.64334
rclavicle 1.47675e-014 2.18663e-015
rhumerus -2.00382 30.5702 -81.615
rradius 123.538
rwrist -18.2087
rhand -34.1085 27.0255
rfingers 7.12502
rthumb -7.28433 -2.82908
lclavicle 1.47675e-014 2.18663e-015
lhumerus -34.6215 -13.5087 96.847
lradius 31.0636
lwrist 27.8181
lhand -20.8155 58.366
lfingers 7.12502
lthumb 5.55248 -271.727
rfemur -0.903466 4.88423 22.0693
rtibia 0.471028
rfoot -2.99898 -14.4341
rtoes -11.0252
lfemur -10.6935 -19.8811 -11.9228
ltibia 18.2107
lfoot -13.0792 16.7632
ltoes -30.4747
515
root -0.113791 17.78 -0.325844 -3.48606 74.1103 -9.91933
lowerback 2.15604 0.68204 0.971605
upperback -3.11348 1.0465 1.57635
thorax -4.43144 0.529883 1.01872
lowerneck -25.7491 0.07383 3.7628
upperneck 27.096 -0.474991 -2.56028
head 13.4214 -0.1135 -1.71906
rclavicle 1.08866e-014 -9.14409e-015
rhumerus -2.10622 30.6874 -81.6703
rradius 123.482
rwrist -18.0751
rhand -34.0393 26.7765
rfingers 7.12502
rthumb -7.21754 -3.08044
lclavicle 1.08866e-014 -9.14409e-015
lhumerus -34.5943 -13.3423 96.7946
lradius 30.595
lwrist 27.5123
lhand -20.6914 58.3276
lfingers 7.12502
lthumb 5.67234 -271.768
rfemur -1.44661 4.87307 22.1332
rtibia 1.51129
rfoot -3.69222 -14.4834
rtoes -8.7194
lfemur -10.6753 -19.9919 -11.8929
ltibia 18.0968
lfoot -13.039 16.8784
ltoes -30.3649
516
root -0.112785 17.7824 -0.32731 -3.46181 74.1224 -9.94191
lowerback 2.1149 0.683856 0.990396
upperback -3.11849 1.04959 1.58331
thorax -4.41314 0.531119 1.01565
lowerneck -25.8343 0.0464243 3.73662
upperneck 27.1968 -0.499014 -2.57802
head 13.4797 -0.127732 -1.72859
rclavicle -7.87933e-014 -5.56597e-015
rhumerus -2.17934 30.7963 -81.7146
rradius 123.389
rwrist -17.9994
rhand -34.0189 27.0089
rfingers 7.12502
rthumb -7.19778 -2.8487
lclavicle -7.87933e-014 -5.56597e-015
lhumerus -34.5919 -13.1969 96.7412
lradius 30.1671
lwrist 27.3286
lhand -20.5693 58.2747
lfingers 7.12502
lthumb 5.79022 -271.824
rfemur -1.57735 4.86117 22.1278
rtibia 1.68413
rfoot -3.91263 -14.4701
rtoes -7.41722
lfemur -10.7104 -20.1114 -11.8725
ltibia 18.0483
lfoot -13.0276 17.0093
ltoes -30.2207
517
root -0.112179 17.7807 -0.328916 -3.4114 74.1342 -9.91252
lowerback 2.10234 0.676449 0.978872
upperback -3.12204 1.03906 1.58291
thorax -4.40975 0.526292 1.02246
lowerneck -26.0227 -0.0502528 3.78326
upperneck 27.3317 -0.617799 -2.72105
head 13.5683 -0.193909 -1.81985
rclavicle 1.10947e-014 -8.15017e-015
rhumerus -2.25139 30.8699 -81.7878
rradius 123.373
rwrist -17.9414
rhand -33.93 26.8942
rfingers 7.12502
rthumb -7.11202 -2.96626
lclavicle 1.10947e-014 -8.15017e-015
lhumerus -34.6288 -13.0373 96.6676
lradius 29.854
lwrist 27.3411
lhand -20.5173 58.2306
lfingers 7.12502
lthumb 5.84036 -271.87
rfemur -1.49203 4.85056 22.1044
rtibia 1.46698
rfoot -3.73388 -14.4707
rtoes -8.76429
lfemur -10.7508 -20.1813 -11.8736
ltibia 18.0643
lfoot -13.0338 17.0669
ltoes -30.2456
